<?xml version="1.0" encoding="UTF-8"?>
<svg id="Calque_1" data-name="Calque 1" xmlns="http://www.w3.org/2000/svg" viewBox="0 0 1920 1080">
  <defs>
    <style>
      .cls-1 {
        fill: #fff;
      }

      .cls-2 {
        fill: none;
        stroke: #25aef2;
        stroke-miterlimit: 10;
        stroke-width: 3px;
      }

      .cls-3 {
        fill: #25aef2;
      }

      .cls-4 {
        fill: #052660;
      }
    </style>
  </defs>
  <rect class="cls-4" width="1920" height="1080"/>
  <g>
    <g>
      <g>
        <g>
          <path class="cls-1" d="M600.11,492.73c13.11-.14,24.22,10.88,24.03,24.03.19,13.11-10.93,24.22-24.03,24.04h-36.48v15.52h-24.79v-63.59h61.27ZM593.91,522.16c1.47,0,2.74-.52,3.78-1.56,1.09-1.09,1.61-2.36,1.61-3.83s-.52-2.79-1.61-3.83c-1.04-1.09-2.32-1.61-3.78-1.61h-30.28v10.83h30.28Z"/>
          <path class="cls-1" d="M716.78,522.12v4.64c.09,24.03-19.49,30.99-43.39,31.04-23.94-.05-43.53-7-43.43-31.04v-4.64c-.09-24.08,19.49-30.99,43.43-31.04,23.94,0,43.39,7,43.39,31.04ZM691.99,523.63c.14-10.36-8.47-12.25-18.6-12.4-10.17.14-18.78,2.04-18.64,12.4v1.56c-.14,10.41,8.47,12.3,18.64,12.44,10.13-.14,18.74-2.03,18.6-12.44v-1.56Z"/>
          <path class="cls-1" d="M785.38,492.69c13.11-.14,24.22,10.88,24.03,24.03,0,4.78-1.28,9.13-3.83,13.01-2.51,3.83-5.87,6.76-10.03,8.7l13.86,17.84h-26.4l-11.97-15.52h-22.14v15.52h-24.79v-63.59h61.27ZM748.9,511.28v10.83h30.23c1.52,0,2.79-.52,3.83-1.56,1.09-1.09,1.61-2.36,1.61-3.83,0-3.03-2.41-5.44-5.44-5.44h-30.23Z"/>
          <path class="cls-1" d="M842.96,556.32v-43.43h-29.48v-20.15h83.75v20.15h-29.48v43.43h-24.79Z"/>
        </g>
        <g>
          <path class="cls-1" d="M968.16,492.73h29.48l34.11,63.59h-27.91l-5.01-10.88h-31.84l-5.01,10.88h-27.92l34.11-63.59ZM974.17,529.92h17.46l-8.71-18.78-8.75,18.78Z"/>
          <path class="cls-1" d="M1089.66,492.64h24.84v34.16c.09,24.03-19.59,30.94-43.43,30.99-23.84-.05-43.53-6.95-43.43-30.99v-34.16h24.79v32.6c-.1,10.46,8.47,12.26,18.64,12.4,10.13-.14,18.74-1.94,18.6-12.4v-32.6Z"/>
          <path class="cls-1" d="M1152.16,556.32v-43.43h-29.48v-20.15h83.75v20.15h-29.48v43.43h-24.79Z"/>
          <path class="cls-1" d="M1295.13,522.12v4.64c.09,24.03-19.49,30.99-43.39,31.04-23.94-.05-43.53-7-43.43-31.04v-4.64c-.09-24.08,19.49-30.99,43.43-31.04,23.94,0,43.39,7,43.39,31.04ZM1270.34,523.63c.14-10.36-8.47-12.25-18.6-12.4-10.17.14-18.78,2.04-18.64,12.4v1.56c-.14,10.41,8.47,12.3,18.64,12.44,10.13-.14,18.74-2.03,18.6-12.44v-1.56Z"/>
          <path class="cls-1" d="M1364.49,492.64h24.84v63.59h-27.91l-34.16-38.84v38.84h-24.79v-63.59h34.11l27.92,33.69v-33.69Z"/>
          <path class="cls-1" d="M1484.95,522.12v4.64c.09,24.03-19.49,30.99-43.39,31.04-23.94-.05-43.53-7-43.43-31.04v-4.64c-.09-24.08,19.49-30.99,43.43-31.04,23.94,0,43.39,7,43.39,31.04ZM1460.16,523.63c.14-10.36-8.47-12.25-18.6-12.4-10.17.14-18.78,2.04-18.64,12.4v1.56c-.14,10.41,8.47,12.3,18.64,12.44,10.13-.14,18.74-2.03,18.6-12.44v-1.56Z"/>
          <path class="cls-1" d="M1492.28,492.64h31.04l24.79,31.79,24.84-31.79h30.99v63.59h-24.79v-33.92l-24.84,33.92h-12.4l-24.84-33.92v33.92h-24.79v-63.59Z"/>
          <path class="cls-1" d="M1618.36,492.73h74.42v16.28h-49.63v8.14h49.63v14.71h-49.63v8.14h49.63v16.32h-74.42v-63.59Z"/>
        </g>
      </g>
      <g>
        <path class="cls-1" d="M540.49,681.72v-67.08h22.77c7.12,0,13.05,1.5,17.81,4.49,4.75,2.99,8.33,7.03,10.72,12.09,2.39,5.07,3.59,10.69,3.59,16.86,0,6.8-1.31,12.72-3.92,17.76-2.62,5.04-6.33,8.94-11.15,11.71-4.82,2.77-10.5,4.16-17.05,4.16h-22.77ZM588.77,648.09c0-5.35-.99-10.11-2.98-14.27-1.98-4.16-4.87-7.42-8.65-9.78-3.78-2.36-8.41-3.54-13.89-3.54h-16.15v55.36h16.15c5.54,0,10.2-1.23,13.98-3.68,3.78-2.46,6.65-5.78,8.6-9.97,1.95-4.19,2.93-8.9,2.93-14.12Z"/>
        <path class="cls-1" d="M653.1,675.86v5.86h-45.06v-67.08h44.21v5.86h-37.6v24.19h32.78v5.57h-32.78v25.6h38.45Z"/>
        <path class="cls-1" d="M689.67,681.72v-67.08h22.77c7.12,0,13.05,1.5,17.81,4.49,4.75,2.99,8.33,7.03,10.72,12.09,2.39,5.07,3.59,10.69,3.59,16.86,0,6.8-1.31,12.72-3.92,17.76-2.62,5.04-6.33,8.94-11.15,11.71-4.82,2.77-10.5,4.16-17.05,4.16h-22.77ZM737.94,648.09c0-5.35-.99-10.11-2.98-14.27-1.98-4.16-4.87-7.42-8.65-9.78-3.78-2.36-8.41-3.54-13.89-3.54h-16.15v55.36h16.15c5.54,0,10.2-1.23,13.98-3.68,3.78-2.46,6.65-5.78,8.6-9.97,1.95-4.19,2.93-8.9,2.93-14.12Z"/>
        <path class="cls-1" d="M775.64,614.64h5.57l27.87,67.08h-6.99l-8.38-20.97h-30.66l-8.38,20.97h-7.09l28.06-67.08ZM791.63,655.55l-13.25-33.16-13.25,33.16h26.51Z"/>
        <path class="cls-1" d="M818.72,681.72v-67.08h6.61v38.98l36.94-39.07h7.28l-27.4,29.52,28.82,37.65h-7.46l-25.6-33.68-12.56,13.05v20.63h-6.61Z"/>
        <path class="cls-1" d="M900.25,614.64h5.57l27.87,67.08h-6.99l-8.38-20.97h-30.66l-8.38,20.97h-7.09l28.06-67.08ZM916.24,655.55l-13.25-33.16-13.25,33.16h26.51Z"/>
        <path class="cls-1" d="M943.33,681.72v-67.08h28.34c2.9,0,5.54.6,7.93,1.79,2.39,1.2,4.49,2.82,6.28,4.87,1.8,2.05,3.18,4.31,4.16,6.8.98,2.49,1.47,5.02,1.47,7.61,0,3.21-.62,6.23-1.85,9.07-1.23,2.83-2.96,5.23-5.19,7.18-2.24,1.95-4.87,3.25-7.89,3.87l16.44,25.89h-7.46l-15.78-24.75h-19.84v24.75h-6.61ZM949.94,651.11h21.92c2.64,0,4.94-.72,6.9-2.17,1.95-1.45,3.46-3.35,4.53-5.72,1.07-2.36,1.61-4.87,1.61-7.51s-.61-5.21-1.84-7.51c-1.23-2.3-2.87-4.16-4.92-5.57-2.05-1.42-4.33-2.13-6.85-2.13h-21.35v30.61Z"/>
      </g>
    </g>
    <path class="cls-3" d="M497.87,416.99c-28.59,15.77-54.89,36.82-77.39,63.12-8.43,9.83-16.03,20.07-22.86,30.65-.28.44-.54.86-.8,1.31l-.04-.03-128.22-31.91c-6.9-1.7-14.16.73-18.6,6.25l-.08.11c-4.4,5.52-5.23,13.07-2.11,19.43l9.7,19.78,9.42,19.21,3.42,6.94,66.07,134.74,3.42,6.98,7.73,15.74,18.82,38.45c.09.24.18.52.26.77l1.99,4.06c1.96,4,5.21,6.97,8.97,8.76.47.2.89.36,1.38.54.1.05.2.06.3.1,3.65,1.1,7.59,1.14,11.46-.17,3.04-1.06,5.65-2.81,7.67-4.99.29-.32.56-.66.82-.98.19-.23.39-.49.56-.74,3.19-4.57,4.26-10.54,2.41-16.26-1.09-3.27-2.06-6.59-3-9.92-.5-1.65-.95-3.3-1.36-4.98-1.53-5.99-2.85-12.03-3.92-18.11-.3-1.59-.55-3.16-.81-4.75-.24-1.58-.48-3.2-.68-4.79-.26-1.6-.44-3.21-.62-4.81-.23-1.85-.42-3.71-.57-5.58-.15-1.34-.26-2.68-.36-4.05-.13-1.63-.25-3.23-.31-4.85-.09-1.64-.17-3.24-.22-4.84-.12-3.26-.19-6.45-.14-9.69,0-1.67.01-3.34.04-4.99.07-1.44.1-2.88.17-4.36.67-18.06,3.35-36.1,8.08-53.75v-.04c9.15-33.98,25.84-66.55,50.27-95.05,19.54-22.85,42.42-41.15,67.29-54.87,4.91-2.67,8.07-7.29,9.09-12.33.21-1.05.38-2.14.37-3.22.16-4.05-.98-8.17-3.63-11.71-.96-1.33-2.1-2.44-3.33-3.42-5.77-4.6-13.89-5.43-20.64-1.72ZM364.97,581.36c-.05.24-.13.42-.2.64-3.31,12.2-5.66,23.88-7.23,34.89-1.18,8.26-1.98,16.33-2.49,24.1l-.99-2.08c-.02.2-.01.41-.03.6l-31.46-64.06-24.74-50.41,80.87,20.12c-5.45,11.82-10.02,23.89-13.73,36.19Z"/>
    <path class="cls-1" d="M495.56,487.74l.48.38c.26.21.5.4.7.64,7.25,6.44,7.2,17.73-.06,24.41-6.48,5.93-12.65,12.35-18.44,19.22-1.16,1.41-2.31,2.8-3.44,4.22-6.3,7.9-11.94,16.15-16.85,24.65-13.96,23.96-22.49,49.95-25.79,76.32-1.26,9.94-10.8,15.69-19.63,13.83-2.42-.49-4.79-1.56-6.91-3.25l-.4-.32c-4.48-3.57-6.78-9.22-6.06-14.92,5.26-41.48,21.62-82.03,49.58-117.1,7.9-9.9,16.44-19.02,25.54-27.3,5.97-5.44,14.99-5.81,21.3-.78Z"/>
    <path class="cls-1" d="M263.42,468.39h0c-15.17,0-27.47,12.3-27.47,27.47h0c0-15.17-12.3-27.47-27.47-27.47h0c15.17,0,27.47-12.3,27.47-27.47h0c0,15.17,12.3,27.47,27.47,27.47Z"/>
    <g>
      <path class="cls-1" d="M544.34,734h3.85l3.73,24.21,13.99-24.21h3.85l-17.23,28.79h-3.16l-5.03-28.79Z"/>
      <path class="cls-1" d="M573.74,763.2c-1.89,0-3.46-.4-4.7-1.21-1.24-.81-2.17-1.88-2.78-3.22-.61-1.34-.91-2.82-.91-4.43,0-1.77.32-3.43.97-4.99.65-1.56,1.55-2.93,2.7-4.13,1.15-1.19,2.48-2.13,3.99-2.8,1.51-.67,3.12-1.01,4.83-1.01,1.89,0,3.47.4,4.72,1.21,1.26.81,2.2,1.88,2.82,3.22.62,1.34.93,2.83.93,4.47,0,1.74-.32,3.4-.97,4.95-.65,1.56-1.55,2.93-2.72,4.12-1.16,1.19-2.5,2.13-4.01,2.8-1.51.67-3.14,1.01-4.87,1.01ZM574.35,760.11c1.05,0,2.07-.23,3.06-.68.99-.46,1.87-1.1,2.64-1.95.77-.84,1.39-1.82,1.85-2.95.46-1.12.69-2.36.69-3.69,0-1.23-.2-2.32-.61-3.27-.41-.95-1-1.7-1.78-2.25-.78-.55-1.76-.82-2.92-.82-1.05,0-2.07.23-3.04.7-.97.47-1.85,1.12-2.64,1.97-.78.84-1.41,1.83-1.87,2.97s-.69,2.37-.69,3.71c0,1.2.2,2.28.61,3.23.41.95,1.01,1.69,1.81,2.23.8.54,1.76.8,2.9.8Z"/>
      <path class="cls-1" d="M589.44,759.95c0-.19.01-.39.04-.59s.05-.4.08-.59l3.04-14.23h-2.76l.61-2.8h2.72l1.5-7.06h3.57l-1.5,7.06h4.5l-.61,2.8h-4.46l-2.8,13.14c-.03.11-.05.21-.06.3s-.02.2-.02.3c0,.57.17.98.53,1.24.35.26.78.39,1.3.39.46,0,.9-.06,1.32-.18.42-.12.79-.25,1.12-.38.32-.14.57-.24.73-.32l.2,2.84c-.32.22-.76.43-1.3.65-.54.22-1.15.38-1.82.51-.68.12-1.38.18-2.11.18-1.08,0-1.99-.26-2.72-.79-.73-.53-1.09-1.34-1.09-2.45Z"/>
      <path class="cls-1" d="M605.9,741.74h3.33l-1.05,4.88c1.03-1.45,2.2-2.63,3.51-3.55,1.31-.91,2.61-1.37,3.91-1.37.24,0,.45,0,.63.02.18.01.32.03.43.06l-.65,3.08c-1.68.03-3.26.48-4.75,1.35-1.49.87-2.66,2.07-3.53,3.59l-2.76,12.98h-3.57l4.5-21.05Z"/>
      <path class="cls-1" d="M624.39,763.2c-1.76,0-3.26-.4-4.5-1.19-1.24-.79-2.19-1.86-2.84-3.2s-.97-2.84-.97-4.51.32-3.31.95-4.85c.63-1.54,1.53-2.92,2.7-4.13,1.16-1.21,2.52-2.16,4.08-2.86,1.55-.7,3.25-1.05,5.09-1.05,1.38,0,2.6.21,3.67.64,1.07.43,1.9,1.06,2.49,1.89.6.83.89,1.88.89,3.14,0,2.12-.95,3.73-2.84,4.83-1.89,1.1-4.8,1.65-8.72,1.65-.73,0-1.57-.02-2.51-.06-.95-.04-2.04-.12-3.28-.22l.49-2.43c1.19.05,2.21.11,3.06.16.85.05,1.64.08,2.37.08,2.05,0,3.68-.17,4.87-.52,1.19-.35,2.05-.83,2.58-1.44.53-.61.79-1.31.79-2.08,0-.7-.17-1.26-.51-1.68s-.81-.75-1.42-.96c-.61-.21-1.33-.32-2.17-.32-1.35,0-2.57.28-3.67.84-1.09.56-2.04,1.33-2.84,2.29-.8.96-1.41,2.05-1.82,3.27-.42,1.22-.63,2.48-.63,3.79,0,1.1.19,2.12.57,3.07.38.95.96,1.71,1.74,2.29s1.77.86,2.96.86,2.46-.32,3.65-.95c1.19-.63,2.12-1.49,2.8-2.58l2.88.85c-.65,1.03-1.5,1.95-2.56,2.76-1.05.81-2.21,1.45-3.47,1.91-1.26.46-2.55.69-3.87.69Z"/>
      <path class="cls-1" d="M656.22,763.2c-1.78,0-3.29-.4-4.52-1.21-1.23-.81-2.17-1.88-2.82-3.22-.65-1.34-.97-2.83-.97-4.47s.33-3.31.97-4.85c.65-1.54,1.55-2.92,2.7-4.13,1.15-1.21,2.5-2.16,4.06-2.86s3.24-1.05,5.05-1.05c2.08,0,3.75.47,5.01,1.4,1.26.93,2.09,2.18,2.49,3.75l-3.69,1.1c-.32-1.03-.87-1.81-1.62-2.35-.76-.54-1.69-.81-2.8-.81s-2.13.24-3.14.72c-1.01.48-1.92,1.16-2.72,2.03-.8.87-1.43,1.87-1.91,2.99s-.71,2.33-.71,3.61c0,1.2.22,2.27.65,3.21s1.03,1.68,1.81,2.23c.77.55,1.65.82,2.66.82.78,0,1.57-.15,2.35-.45.78-.3,1.49-.7,2.13-1.2.63-.5,1.11-1.05,1.44-1.64l3.28,1.05c-.62,1.03-1.44,1.94-2.45,2.74s-2.14,1.43-3.39,1.89c-1.24.46-2.53.69-3.85.69Z"/>
      <path class="cls-1" d="M677.83,763.2c-1.89,0-3.46-.4-4.7-1.21-1.24-.81-2.17-1.88-2.78-3.22-.61-1.34-.91-2.82-.91-4.43,0-1.77.32-3.43.97-4.99.65-1.56,1.55-2.93,2.7-4.13,1.15-1.19,2.48-2.13,3.99-2.8,1.51-.67,3.12-1.01,4.83-1.01,1.89,0,3.47.4,4.72,1.21,1.26.81,2.2,1.88,2.82,3.22.62,1.34.93,2.83.93,4.47,0,1.74-.32,3.4-.97,4.95-.65,1.56-1.55,2.93-2.72,4.12-1.16,1.19-2.5,2.13-4.01,2.8-1.51.67-3.14,1.01-4.87,1.01ZM678.44,760.11c1.05,0,2.07-.23,3.06-.68.99-.46,1.87-1.1,2.64-1.95s1.39-1.82,1.85-2.95c.46-1.12.69-2.36.69-3.69,0-1.23-.2-2.32-.61-3.27-.41-.95-1-1.7-1.78-2.25-.78-.55-1.76-.82-2.92-.82-1.05,0-2.07.23-3.04.7-.97.47-1.85,1.12-2.64,1.97-.78.84-1.41,1.83-1.87,2.97s-.69,2.37-.69,3.71c0,1.2.2,2.28.61,3.23.41.95,1.01,1.69,1.81,2.23.8.54,1.76.8,2.9.8Z"/>
      <path class="cls-1" d="M696.69,741.74h3.24l-.97,4.55c.73-.99,1.6-1.85,2.62-2.58,1.01-.72,2.1-1.29,3.26-1.69s2.32-.6,3.49-.6,2.04.21,2.72.62c.68.42,1.16.99,1.46,1.73.3.74.45,1.6.45,2.6,0,.59-.05,1.21-.14,1.85s-.21,1.31-.34,2.01l-2.68,12.56h-3.57l2.51-11.74c.13-.59.23-1.13.28-1.63.05-.5.08-.96.08-1.39,0-1.18-.24-2.04-.73-2.59-.49-.55-1.2-.82-2.15-.82-.89,0-1.84.24-2.84.72-1,.48-1.93,1.13-2.8,1.94-.86.81-1.57,1.76-2.11,2.82l-2.72,12.68h-3.57l4.5-21.05Z"/>
      <path class="cls-1" d="M719.68,741.74h3.24l-.97,4.55c.73-.99,1.6-1.85,2.62-2.58,1.01-.72,2.1-1.29,3.26-1.69,1.16-.4,2.33-.6,3.49-.6s2.04.21,2.72.62,1.16.99,1.46,1.73c.3.74.45,1.6.45,2.6,0,.59-.05,1.21-.14,1.85s-.21,1.31-.34,2.01l-2.68,12.56h-3.57l2.51-11.74c.13-.59.23-1.13.28-1.63.05-.5.08-.96.08-1.39,0-1.18-.24-2.04-.73-2.59-.49-.55-1.2-.82-2.15-.82-.89,0-1.84.24-2.84.72-1,.48-1.93,1.13-2.8,1.94-.87.81-1.57,1.76-2.11,2.82l-2.72,12.68h-3.57l4.5-21.05Z"/>
      <path class="cls-1" d="M747.21,763.2c-1.76,0-3.26-.4-4.5-1.19-1.24-.79-2.19-1.86-2.84-3.2s-.97-2.84-.97-4.51.32-3.31.95-4.85c.63-1.54,1.53-2.92,2.7-4.13s2.52-2.16,4.08-2.86c1.55-.7,3.25-1.05,5.09-1.05,1.38,0,2.6.21,3.67.64,1.07.43,1.9,1.06,2.49,1.89.59.83.89,1.88.89,3.14,0,2.12-.95,3.73-2.84,4.83s-4.8,1.65-8.72,1.65c-.73,0-1.57-.02-2.51-.06-.95-.04-2.04-.12-3.28-.22l.49-2.43c1.19.05,2.21.11,3.06.16.85.05,1.64.08,2.37.08,2.05,0,3.68-.17,4.87-.52,1.19-.35,2.05-.83,2.58-1.44.53-.61.79-1.31.79-2.08,0-.7-.17-1.26-.51-1.68-.34-.43-.81-.75-1.42-.96-.61-.21-1.33-.32-2.17-.32-1.35,0-2.58.28-3.67.84-1.09.56-2.04,1.33-2.84,2.29-.8.96-1.41,2.05-1.82,3.27-.42,1.22-.63,2.48-.63,3.79,0,1.1.19,2.12.57,3.07s.96,1.71,1.74,2.29c.78.58,1.77.86,2.96.86s2.46-.32,3.65-.95c1.19-.63,2.12-1.49,2.8-2.58l2.88.85c-.65,1.03-1.5,1.95-2.56,2.76-1.05.81-2.21,1.45-3.47,1.91s-2.55.69-3.87.69Z"/>
      <path class="cls-1" d="M767.25,752.31l-5.23-10.56h3.73l3.73,7.74.16.64.49-.64,7.02-7.74h3.77l-9.73,10.56,5.27,10.48h-3.77l-3.73-7.7-.24-.6-.45.6-7.01,7.7h-3.77l9.77-10.48Z"/>
      <path class="cls-1" d="M784.23,741.74h3.57l-4.5,21.05h-3.57l4.5-21.05ZM786.02,733.31h3.57l-.93,4.46h-3.57l.93-4.46Z"/>
      <path class="cls-1" d="M797.98,763.2c-1.89,0-3.46-.4-4.7-1.21-1.24-.81-2.17-1.88-2.78-3.22-.61-1.34-.91-2.82-.91-4.43,0-1.77.33-3.43.97-4.99.65-1.56,1.55-2.93,2.7-4.13,1.15-1.19,2.48-2.13,4-2.8,1.51-.67,3.12-1.01,4.82-1.01,1.89,0,3.47.4,4.73,1.21,1.26.81,2.2,1.88,2.82,3.22.62,1.34.93,2.83.93,4.47,0,1.74-.32,3.4-.97,4.95-.65,1.56-1.55,2.93-2.72,4.12-1.16,1.19-2.5,2.13-4.01,2.8-1.51.67-3.14,1.01-4.87,1.01ZM798.59,760.11c1.05,0,2.07-.23,3.06-.68.99-.46,1.87-1.1,2.64-1.95s1.38-1.82,1.84-2.95c.46-1.12.69-2.36.69-3.69,0-1.23-.2-2.32-.61-3.27-.4-.95-1-1.7-1.78-2.25-.78-.55-1.76-.82-2.92-.82-1.05,0-2.07.23-3.04.7-.97.47-1.85,1.12-2.64,1.97-.79.84-1.41,1.83-1.87,2.97-.46,1.14-.69,2.37-.69,3.71,0,1.2.2,2.28.61,3.23.4.95,1.01,1.69,1.8,2.23.8.54,1.76.8,2.9.8Z"/>
      <path class="cls-1" d="M816.84,741.74h3.24l-.97,4.55c.73-.99,1.6-1.85,2.62-2.58,1.01-.72,2.1-1.29,3.26-1.69,1.16-.4,2.33-.6,3.49-.6s2.04.21,2.72.62c.68.42,1.16.99,1.46,1.73.3.74.45,1.6.45,2.6,0,.59-.05,1.21-.14,1.85-.1.64-.21,1.31-.35,2.01l-2.68,12.56h-3.57l2.51-11.74c.14-.59.23-1.13.28-1.63.05-.5.08-.96.08-1.39,0-1.18-.24-2.04-.73-2.59-.49-.55-1.2-.82-2.15-.82-.89,0-1.84.24-2.84.72-1,.48-1.93,1.13-2.8,1.94-.87.81-1.57,1.76-2.11,2.82l-2.72,12.68h-3.57l4.5-21.05Z"/>
      <path class="cls-1" d="M853.58,763.2c-1.57,0-2.92-.4-4.06-1.19-1.14-.79-2-1.85-2.59-3.18-.6-1.33-.89-2.78-.89-4.37,0-1.69.32-3.31.95-4.87.63-1.56,1.5-2.94,2.6-4.17,1.09-1.22,2.34-2.19,3.75-2.92,1.4-.72,2.88-1.09,4.42-1.09,1.62,0,2.97.44,4.05,1.33,1.08.89,1.84,1.96,2.27,3.22l.93-4.22h3.57l-3.57,16.52c-.03.11-.05.2-.06.28-.01.08-.02.16-.02.24,0,.48.3.73.89.76l-.65,3.08c-.3.03-.56.06-.79.1-.23.04-.44.06-.63.06-.76,0-1.33-.17-1.72-.5-.39-.33-.59-.75-.59-1.24,0-.16.01-.33.04-.54.03-.21.07-.45.12-.73.05-.28.12-.59.2-.93-1.05,1.34-2.33,2.4-3.83,3.18-1.5.78-2.97,1.17-4.4,1.17ZM855.12,760.11c.59,0,1.24-.12,1.93-.36.69-.24,1.36-.57,2.03-1,.66-.43,1.26-.93,1.8-1.5.54-.57.95-1.18,1.22-1.82l1.26-6.04c-.11-.91-.42-1.73-.93-2.46-.51-.73-1.14-1.32-1.89-1.76s-1.53-.66-2.37-.66c-1.14,0-2.2.27-3.2.82-1,.55-1.89,1.28-2.66,2.19-.77.91-1.38,1.92-1.82,3.03-.45,1.11-.67,2.23-.67,3.35s.22,2.19.65,3.13c.43.94,1.05,1.69,1.84,2.25.8.56,1.74.84,2.82.84Z"/>
      <path class="cls-1" d="M876,763.2c-3.3,0-4.95-1.77-4.95-5.32,0-.51.04-1.05.12-1.63.08-.58.19-1.2.32-1.87l2.72-12.62h3.53l-2.55,11.92c-.24,1.07-.37,2-.37,2.78,0,2.44,1.05,3.67,3.16,3.67.92,0,1.84-.21,2.76-.62.92-.42,1.8-1.01,2.66-1.79.85-.78,1.59-1.7,2.21-2.77l2.8-13.18h3.57l-3.57,16.67c-.03.11-.05.2-.06.28-.01.08-.02.16-.02.24,0,.48.3.74.89.76l-.65,3.08c-.3.03-.56.06-.79.1-.23.04-.44.06-.63.06-.73,0-1.28-.16-1.66-.48-.38-.32-.57-.75-.57-1.29,0-.16.01-.36.04-.58.03-.23.07-.53.14-.91.07-.38.16-.85.26-1.41-1.22,1.56-2.65,2.77-4.3,3.63s-3.34,1.29-5.07,1.29Z"/>
      <path class="cls-1" d="M907.83,741.74h3.24l-.97,4.55c1.08-1.5,2.38-2.69,3.89-3.56,1.51-.87,3.05-1.31,4.62-1.31,1.05,0,1.94.2,2.66.6.72.4,1.26.98,1.64,1.73.38.75.58,1.68.61,2.78.84-1.13,1.72-2.06,2.64-2.82.92-.75,1.89-1.32,2.92-1.71,1.03-.39,2.07-.58,3.12-.58,1.16,0,2.08.21,2.76.64.68.43,1.17,1.03,1.48,1.79.31.76.47,1.66.47,2.68,0,.56-.04,1.15-.12,1.77s-.19,1.26-.32,1.93l-2.72,12.56h-3.57l2.51-11.74c.24-1.13.37-2.1.37-2.93,0-1.18-.25-2.06-.75-2.63-.5-.58-1.22-.86-2.17-.86-.89,0-1.78.23-2.68.7-.89.47-1.72,1.11-2.49,1.94-.77.83-1.43,1.79-1.97,2.89l-2.68,12.64h-3.57l2.51-11.75c.14-.59.23-1.13.28-1.61.05-.48.08-.94.08-1.37,0-1.17-.24-2.04-.73-2.6-.49-.56-1.2-.84-2.15-.84-1.32,0-2.64.5-3.95,1.5-1.31,1-2.37,2.33-3.18,3.99l-2.72,12.68h-3.57l4.5-21.05Z"/>
      <path class="cls-1" d="M948.22,763.2c-1.89,0-3.46-.4-4.7-1.21-1.24-.81-2.17-1.88-2.78-3.22-.61-1.34-.91-2.82-.91-4.43,0-1.77.32-3.43.97-4.99.65-1.56,1.55-2.93,2.7-4.13,1.15-1.19,2.48-2.13,3.99-2.8,1.51-.67,3.12-1.01,4.83-1.01,1.89,0,3.47.4,4.72,1.21s2.2,1.88,2.82,3.22c.62,1.34.93,2.83.93,4.47,0,1.74-.32,3.4-.97,4.95-.65,1.56-1.56,2.93-2.72,4.12-1.16,1.19-2.5,2.13-4.01,2.8-1.51.67-3.14,1.01-4.87,1.01ZM948.83,760.11c1.05,0,2.07-.23,3.06-.68.99-.46,1.87-1.1,2.64-1.95.77-.84,1.38-1.82,1.85-2.95.46-1.12.69-2.36.69-3.69,0-1.23-.2-2.32-.61-3.27-.4-.95-1-1.7-1.78-2.25-.78-.55-1.76-.82-2.92-.82-1.05,0-2.07.23-3.04.7s-1.85,1.12-2.64,1.97-1.41,1.83-1.87,2.97-.69,2.37-.69,3.71c0,1.2.2,2.28.61,3.23.4.95,1.01,1.69,1.8,2.23.8.54,1.76.8,2.9.8Z"/>
      <path class="cls-1" d="M967.07,741.74h3.24l-.97,4.55c.73-.99,1.6-1.85,2.61-2.58,1.01-.72,2.1-1.29,3.26-1.69,1.16-.4,2.32-.6,3.49-.6s2.04.21,2.72.62c.68.42,1.16.99,1.46,1.73.3.74.45,1.6.45,2.6,0,.59-.05,1.21-.14,1.85-.1.64-.21,1.31-.35,2.01l-2.68,12.56h-3.57l2.51-11.74c.14-.59.23-1.13.28-1.63.05-.5.08-.96.08-1.39,0-1.18-.24-2.04-.73-2.59-.49-.55-1.2-.82-2.15-.82-.89,0-1.84.24-2.84.72-1,.48-1.93,1.13-2.8,1.94-.87.81-1.57,1.76-2.11,2.82l-2.72,12.68h-3.57l4.5-21.05Z"/>
      <path class="cls-1" d="M993.8,763.2c-1.57,0-2.92-.4-4.06-1.19-1.14-.79-2-1.85-2.59-3.18-.6-1.33-.89-2.78-.89-4.37,0-1.69.32-3.31.95-4.87.63-1.56,1.5-2.94,2.6-4.17,1.09-1.22,2.34-2.19,3.75-2.92,1.4-.72,2.88-1.09,4.42-1.09,1.62,0,2.97.44,4.05,1.33,1.08.89,1.84,1.96,2.27,3.22l2.72-12.78h3.57l-5.35,25.22c-.03.11-.05.2-.06.28-.01.08-.02.16-.02.24,0,.49.3.74.89.77l-.65,3.08c-.3.03-.56.06-.79.1-.23.04-.44.06-.63.06-.76,0-1.33-.17-1.72-.52-.39-.35-.59-.78-.59-1.29,0-.16.01-.34.04-.54.03-.2.07-.45.12-.74.05-.29.12-.63.2-1.01-1.05,1.34-2.33,2.4-3.83,3.18-1.5.78-2.97,1.17-4.4,1.17ZM995.34,760.11c.59,0,1.24-.12,1.93-.36.69-.24,1.36-.57,2.03-1,.66-.43,1.26-.93,1.8-1.5.54-.57.95-1.18,1.22-1.82l1.26-6.04c-.11-.91-.42-1.73-.93-2.46-.51-.73-1.14-1.32-1.89-1.76s-1.53-.66-2.37-.66c-1.14,0-2.2.27-3.2.82-1,.55-1.89,1.28-2.66,2.19-.77.91-1.38,1.92-1.82,3.03-.45,1.11-.67,2.23-.67,3.35s.22,2.19.65,3.13c.43.94,1.05,1.69,1.84,2.25.8.56,1.74.84,2.82.84Z"/>
      <path class="cls-1" d="M1019.18,763.2c-1.76,0-3.26-.4-4.5-1.19-1.24-.79-2.19-1.86-2.84-3.2-.65-1.34-.97-2.84-.97-4.51s.32-3.31.95-4.85c.63-1.54,1.53-2.92,2.7-4.13,1.16-1.21,2.52-2.16,4.07-2.86s3.25-1.05,5.09-1.05c1.38,0,2.6.21,3.67.64,1.07.43,1.9,1.06,2.49,1.89.6.83.89,1.88.89,3.14,0,2.12-.95,3.73-2.84,4.83-1.89,1.1-4.8,1.65-8.72,1.65-.73,0-1.57-.02-2.51-.06-.95-.04-2.04-.12-3.28-.22l.49-2.43c1.19.05,2.21.11,3.06.16.85.05,1.64.08,2.37.08,2.05,0,3.68-.17,4.87-.52,1.19-.35,2.05-.83,2.58-1.44.53-.61.79-1.31.79-2.08,0-.7-.17-1.26-.51-1.68s-.81-.75-1.42-.96c-.61-.21-1.33-.32-2.17-.32-1.35,0-2.58.28-3.67.84-1.1.56-2.04,1.33-2.84,2.29-.8.96-1.41,2.05-1.82,3.27-.42,1.22-.63,2.48-.63,3.79,0,1.1.19,2.12.57,3.07.38.95.96,1.71,1.74,2.29s1.77.86,2.96.86,2.46-.32,3.65-.95c1.19-.63,2.12-1.49,2.8-2.58l2.88.85c-.65,1.03-1.5,1.95-2.56,2.76-1.05.81-2.21,1.45-3.47,1.91-1.26.46-2.55.69-3.87.69Z"/>
    </g>
    <line class="cls-2" x1="540.49" y1="713.49" x2="1030.74" y2="713.49"/>
  </g>
</svg>