<?xml version="1.0" encoding="UTF-8"?>
<svg id="Calque_1" data-name="Calque 1" xmlns="http://www.w3.org/2000/svg" viewBox="0 0 1920 1080">
  <defs>
    <style>
      .cls-1 {
        fill: #fff;
      }

      .cls-2 {
        fill: none;
        stroke: #fff;
        stroke-miterlimit: 10;
        stroke-width: 3px;
      }

      .cls-3 {
        fill: #cd5602;
      }

      .cls-4 {
        fill: #052660;
      }
    </style>
  </defs>
  <rect class="cls-4" width="1920" height="1080"/>
  <g>
    <g>
      <g>
        <g>
          <g>
            <path class="cls-1" d="M672.8,474.34c11.64-.12,21.51,9.66,21.34,21.34.17,11.64-9.7,21.51-21.34,21.34h-32.38v13.78h-22.01v-56.45h54.4ZM667.3,500.46c1.3,0,2.43-.46,3.36-1.39.97-.97,1.43-2.1,1.43-3.4s-.46-2.48-1.43-3.4c-.92-.97-2.06-1.43-3.36-1.43h-26.88v9.62h26.88Z"/>
            <path class="cls-1" d="M776.38,500.42v4.12c.08,21.34-17.31,27.51-38.52,27.55-21.25-.04-38.64-6.22-38.56-27.55v-4.12c-.08-21.38,17.31-27.51,38.56-27.56,21.25,0,38.52,6.22,38.52,27.56ZM754.37,501.77c.12-9.2-7.52-10.88-16.51-11-9.03.13-16.67,1.81-16.55,11v1.39c-.13,9.24,7.52,10.92,16.55,11.05,8.99-.12,16.63-1.81,16.51-11.05v-1.39Z"/>
            <path class="cls-1" d="M837.28,474.3c11.64-.13,21.51,9.66,21.34,21.34,0,4.24-1.13,8.11-3.4,11.55-2.23,3.4-5.21,6.01-8.9,7.73l12.31,15.84h-23.44l-10.63-13.78h-19.66v13.78h-22.01v-56.45h54.4ZM804.89,490.8v9.62h26.84c1.35,0,2.48-.46,3.4-1.39.97-.97,1.43-2.1,1.43-3.4,0-2.69-2.14-4.83-4.83-4.83h-26.84Z"/>
            <path class="cls-1" d="M888.4,530.79v-38.56h-26.17v-17.89h74.35v17.89h-26.17v38.56h-22.01Z"/>
          </g>
          <g>
            <path class="cls-1" d="M999.55,474.34h26.17l30.28,56.45h-24.78l-4.45-9.66h-28.27l-4.45,9.66h-24.78l30.28-56.45ZM1004.89,507.35h15.5l-7.73-16.67-7.77,16.67Z"/>
            <path class="cls-1" d="M1107.42,474.25h22.05v30.33c.08,21.34-17.39,27.47-38.56,27.51-21.17-.04-38.64-6.17-38.56-27.51v-30.33h22.01v28.94c-.09,9.28,7.52,10.88,16.55,11,8.99-.12,16.63-1.72,16.51-11v-28.94Z"/>
            <path class="cls-1" d="M1162.9,530.79v-38.56h-26.17v-17.89h74.35v17.89h-26.17v38.56h-22.01Z"/>
            <path class="cls-1" d="M1289.83,500.42v4.12c.08,21.34-17.31,27.51-38.52,27.55-21.25-.04-38.64-6.22-38.56-27.55v-4.12c-.08-21.38,17.31-27.51,38.56-27.56,21.25,0,38.52,6.22,38.52,27.56ZM1267.82,501.77c.12-9.2-7.52-10.88-16.51-11-9.03.13-16.67,1.81-16.55,11v1.39c-.12,9.24,7.52,10.92,16.55,11.05,8.99-.12,16.63-1.81,16.51-11.05v-1.39Z"/>
            <path class="cls-1" d="M1351.41,474.25h22.05v56.45h-24.78l-30.33-34.48v34.48h-22.01v-56.45h30.28l24.78,29.91v-29.91Z"/>
            <path class="cls-1" d="M1458.35,500.42v4.12c.08,21.34-17.31,27.51-38.52,27.55-21.25-.04-38.64-6.22-38.56-27.55v-4.12c-.08-21.38,17.31-27.51,38.56-27.56,21.25,0,38.52,6.22,38.52,27.56ZM1436.34,501.77c.12-9.2-7.52-10.88-16.51-11-9.03.13-16.67,1.81-16.55,11v1.39c-.12,9.24,7.52,10.92,16.55,11.05,8.99-.12,16.63-1.81,16.51-11.05v-1.39Z"/>
            <path class="cls-1" d="M1464.85,474.25h27.56l22.01,28.23,22.05-28.23h27.51v56.45h-22.01v-30.12l-22.05,30.12h-11l-22.05-30.12v30.12h-22.01v-56.45Z"/>
            <path class="cls-1" d="M1576.79,474.34h66.07v14.45h-44.06v7.23h44.06v13.06h-44.06v7.23h44.06v14.49h-66.07v-56.45Z"/>
          </g>
        </g>
        <g>
          <path class="cls-3" d="M619.87,642.12v-59.55h20.21c6.32,0,11.59,1.33,15.81,3.98,4.22,2.66,7.39,6.24,9.52,10.74,2.12,4.5,3.19,9.49,3.19,14.97,0,6.04-1.16,11.29-3.48,15.77-2.32,4.47-5.62,7.94-9.9,10.4-4.28,2.46-9.33,3.69-15.14,3.69h-20.21ZM662.73,612.26c0-4.75-.88-8.98-2.64-12.67-1.76-3.69-4.32-6.58-7.68-8.68-3.35-2.1-7.46-3.15-12.33-3.15h-14.34v49.15h14.34c4.92,0,9.06-1.09,12.41-3.27,3.36-2.18,5.9-5.13,7.63-8.85,1.73-3.72,2.6-7.9,2.6-12.54Z"/>
          <path class="cls-3" d="M719.85,636.92v5.2h-40.01v-59.55h39.25v5.2h-33.38v21.47h29.1v4.95h-29.1v22.73h34.14Z"/>
          <path class="cls-3" d="M752.31,642.12v-59.55h20.21c6.32,0,11.59,1.33,15.81,3.98,4.22,2.66,7.39,6.24,9.52,10.74,2.12,4.5,3.19,9.49,3.19,14.97,0,6.04-1.16,11.29-3.48,15.77-2.32,4.47-5.62,7.94-9.9,10.4-4.28,2.46-9.33,3.69-15.14,3.69h-20.21ZM795.17,612.26c0-4.75-.88-8.98-2.64-12.67-1.76-3.69-4.32-6.58-7.68-8.68-3.35-2.1-7.46-3.15-12.33-3.15h-14.34v49.15h14.34c4.92,0,9.06-1.09,12.41-3.27,3.36-2.18,5.9-5.13,7.63-8.85,1.73-3.72,2.6-7.9,2.6-12.54Z"/>
          <path class="cls-3" d="M828.63,582.57h4.95l24.74,59.55h-6.21l-7.44-18.62h-27.22l-7.44,18.62h-6.29l24.91-59.55ZM842.83,618.88l-11.77-29.44-11.77,29.44h23.53Z"/>
          <path class="cls-3" d="M866.88,642.12v-59.55h5.87v34.6l32.79-34.69h6.46l-24.32,26.21,25.58,33.43h-6.63l-22.73-29.9-11.15,11.59v18.31h-5.87Z"/>
          <path class="cls-3" d="M939.26,582.57h4.95l24.74,59.55h-6.21l-7.44-18.62h-27.22l-7.44,18.62h-6.29l24.91-59.55ZM953.46,618.88l-11.77-29.44-11.77,29.44h23.53Z"/>
          <path class="cls-3" d="M977.51,642.12v-59.55h25.16c2.57,0,4.92.53,7.04,1.59,2.12,1.06,3.98,2.5,5.58,4.32,1.59,1.82,2.82,3.83,3.69,6.04s1.3,4.46,1.3,6.75c0,2.85-.55,5.53-1.64,8.05-1.09,2.52-2.63,4.64-4.61,6.37-1.99,1.73-4.32,2.88-7.01,3.44l14.59,22.98h-6.62l-14.01-21.98h-17.61v21.98h-5.87ZM983.37,614.94h19.46c2.35,0,4.39-.64,6.12-1.93,1.73-1.29,3.07-2.98,4.02-5.08.95-2.1,1.43-4.32,1.43-6.67s-.54-4.63-1.63-6.67c-1.09-2.04-2.55-3.69-4.37-4.95-1.82-1.26-3.84-1.89-6.08-1.89h-18.95v27.18Z"/>
        </g>
      </g>
      <g>
        <path class="cls-1" d="M566.88,367.88c-28.63,15.79-54.95,36.86-77.48,63.2-8.44,9.84-16.05,20.09-22.89,30.68-.28.44-.54.86-.8,1.31l-.04-.03-128.37-31.95c-6.91-1.7-14.18.73-18.62,6.25l-.09.11c-4.4,5.52-5.24,13.09-2.11,19.45l9.71,19.8,9.43,19.23,3.42,6.95,66.15,134.9,3.43,6.99,7.74,15.76,18.84,38.49c.09.24.18.52.26.77l1.99,4.06c1.97,4.01,5.21,6.98,8.98,8.77.47.2.89.37,1.38.54.1.05.2.06.3.1,3.66,1.1,7.6,1.14,11.47-.17,3.04-1.06,5.66-2.81,7.68-5,.29-.32.57-.67.82-.99.19-.23.39-.49.56-.74,3.19-4.57,4.26-10.55,2.41-16.28-1.09-3.27-2.06-6.6-3-9.93-.5-1.65-.96-3.31-1.36-4.99-1.53-6-2.85-12.04-3.93-18.13-.3-1.6-.55-3.16-.81-4.76-.24-1.58-.48-3.21-.68-4.79-.26-1.6-.44-3.21-.62-4.82-.23-1.86-.42-3.72-.57-5.58-.15-1.34-.26-2.69-.36-4.05-.13-1.64-.25-3.23-.31-4.85-.09-1.64-.17-3.24-.22-4.85-.12-3.27-.19-6.46-.14-9.71,0-1.67.01-3.34.04-4.99.07-1.44.1-2.88.17-4.37.68-18.08,3.35-36.14,8.09-53.81v-.04c9.16-34.02,25.87-66.63,50.33-95.16,19.56-22.88,42.47-41.2,67.37-54.94,4.92-2.67,8.08-7.3,9.11-12.34.21-1.05.38-2.14.37-3.22.16-4.05-.98-8.18-3.63-11.72-.97-1.33-2.1-2.44-3.34-3.43-5.78-4.61-13.91-5.44-20.67-1.72ZM433.81,532.45c-.05.24-.13.42-.2.64-3.32,12.21-5.67,23.91-7.23,34.93-1.18,8.27-1.98,16.35-2.5,24.13l-.99-2.08c-.02.2-.01.41-.03.6l-31.5-64.13-24.77-50.47,80.97,20.14c-5.46,11.83-10.03,23.91-13.75,36.23Z"/>
        <path class="cls-3" d="M564.56,438.72l.48.38c.26.21.5.4.7.64,7.26,6.45,7.21,17.76-.06,24.43-6.49,5.94-12.66,12.36-18.46,19.24-1.16,1.41-2.31,2.8-3.45,4.23-6.31,7.91-11.95,16.17-16.87,24.68-13.97,23.99-22.51,50.01-25.82,76.41-1.26,9.95-10.81,15.71-19.65,13.85-2.42-.49-4.8-1.56-6.92-3.25l-.41-.32c-4.48-3.57-6.79-9.23-6.07-14.93,5.27-41.53,21.64-82.12,49.63-117.24,7.91-9.92,16.46-19.04,25.57-27.33,5.98-5.45,15.01-5.82,21.32-.78Z"/>
        <path class="cls-3" d="M332.15,419.34h0c-15.19,0-27.5,12.31-27.5,27.5h0c0-15.19-12.31-27.5-27.5-27.5h0c15.19,0,27.5-12.31,27.5-27.5h0c0,15.19,12.31,27.5,27.5,27.5Z"/>
      </g>
    </g>
    <g>
      <path class="cls-1" d="M623.29,688.53h3.42l3.31,21.49,12.42-21.49h3.42l-15.3,25.56h-2.81l-4.46-25.56Z"/>
      <path class="cls-1" d="M649.39,714.45c-1.68,0-3.07-.36-4.18-1.07-1.1-.71-1.93-1.67-2.47-2.86-.54-1.19-.81-2.5-.81-3.93,0-1.57.29-3.05.86-4.43.58-1.38,1.37-2.6,2.39-3.66,1.02-1.06,2.2-1.89,3.55-2.48,1.34-.59,2.77-.89,4.28-.89,1.68,0,3.08.36,4.19,1.07,1.12.71,1.95,1.67,2.5,2.86.55,1.19.83,2.51.83,3.97,0,1.55-.29,3.01-.86,4.4-.58,1.38-1.38,2.6-2.41,3.66-1.03,1.06-2.22,1.89-3.56,2.48-1.34.59-2.79.89-4.32.89ZM649.93,711.71c.94,0,1.84-.2,2.72-.61.88-.4,1.66-.98,2.34-1.73s1.23-1.62,1.64-2.62c.41-1,.61-2.09.61-3.28,0-1.09-.18-2.06-.54-2.9-.36-.84-.89-1.51-1.58-2-.7-.49-1.56-.73-2.59-.73-.94,0-1.84.21-2.7.62-.86.42-1.64,1-2.34,1.75-.7.75-1.25,1.63-1.66,2.64s-.61,2.11-.61,3.3c0,1.07.18,2.02.54,2.87.36.84.89,1.5,1.6,1.98.71.48,1.57.71,2.57.71Z"/>
      <path class="cls-1" d="M663.32,711.57c0-.17.01-.34.04-.52s.05-.35.07-.52l2.7-12.64h-2.45l.54-2.48h2.41l1.33-6.26h3.17l-1.33,6.26h4l-.54,2.48h-3.96l-2.48,11.66c-.03.1-.04.19-.05.27s-.02.17-.02.27c0,.5.16.87.47,1.1.31.23.7.34,1.15.34.41,0,.8-.05,1.17-.16.37-.11.7-.22.99-.34.29-.12.5-.22.65-.29l.18,2.52c-.29.19-.67.38-1.15.58-.48.19-1.02.34-1.62.45-.6.11-1.22.16-1.87.16-.96,0-1.76-.23-2.41-.7-.65-.47-.97-1.19-.97-2.18Z"/>
      <path class="cls-1" d="M677.94,695.41h2.95l-.94,4.33c.91-1.29,1.95-2.34,3.12-3.15,1.16-.81,2.32-1.22,3.47-1.22.22,0,.4,0,.56.02.16.01.28.03.38.05l-.58,2.74c-1.49.02-2.89.42-4.21,1.2-1.32.77-2.36,1.84-3.13,3.19l-2.45,11.53h-3.17l4-18.68Z"/>
      <path class="cls-1" d="M694.35,714.45c-1.56,0-2.89-.35-4-1.05-1.1-.7-1.94-1.65-2.52-2.84s-.86-2.52-.86-4,.28-2.94.85-4.31c.56-1.37,1.36-2.59,2.39-3.66,1.03-1.07,2.24-1.92,3.62-2.54,1.38-.62,2.88-.93,4.52-.93,1.22,0,2.31.19,3.26.57.95.38,1.69.94,2.21,1.68.53.74.79,1.67.79,2.79,0,1.88-.84,3.31-2.52,4.29-1.68.98-4.26,1.47-7.74,1.47-.65,0-1.39-.02-2.23-.05-.84-.04-1.81-.1-2.92-.2l.43-2.16c1.06.05,1.96.1,2.72.14.76.05,1.46.07,2.11.07,1.82,0,3.26-.15,4.32-.46,1.06-.31,1.82-.74,2.29-1.28.47-.55.7-1.16.7-1.85,0-.62-.15-1.12-.45-1.5s-.72-.66-1.26-.85c-.54-.19-1.18-.28-1.93-.28-1.2,0-2.29.25-3.26.75-.97.5-1.81,1.18-2.52,2.03-.71.86-1.25,1.82-1.62,2.91-.37,1.08-.56,2.2-.56,3.37,0,.97.17,1.88.5,2.73s.85,1.52,1.55,2.03,1.57.77,2.63.77,2.18-.28,3.24-.85c1.06-.56,1.88-1.33,2.48-2.29l2.56.76c-.58.91-1.33,1.73-2.27,2.45-.94.72-1.96,1.28-3.08,1.69-1.12.41-2.26.61-3.44.61Z"/>
      <path class="cls-1" d="M722.61,714.45c-1.58,0-2.92-.36-4.01-1.07-1.09-.71-1.93-1.67-2.5-2.86-.58-1.19-.86-2.51-.86-3.97s.29-2.94.86-4.31c.58-1.37,1.37-2.59,2.39-3.66,1.02-1.07,2.22-1.92,3.6-2.54s2.87-.93,4.48-.93c1.85,0,3.33.41,4.45,1.24,1.12.83,1.85,1.94,2.21,3.33l-3.28.97c-.29-.91-.77-1.61-1.44-2.09-.67-.48-1.5-.72-2.48-.72s-1.89.21-2.79.64c-.9.43-1.7,1.03-2.41,1.8-.71.77-1.27,1.66-1.69,2.65s-.63,2.07-.63,3.21c0,1.07.19,2.02.58,2.85s.92,1.49,1.6,1.98c.68.49,1.47.73,2.36.73.7,0,1.39-.13,2.09-.4.7-.26,1.33-.62,1.89-1.06.56-.44.99-.93,1.28-1.46l2.92.94c-.55.91-1.28,1.72-2.18,2.43s-1.9,1.27-3.01,1.67c-1.1.41-2.24.61-3.42.61Z"/>
      <path class="cls-1" d="M741.8,714.45c-1.68,0-3.07-.36-4.18-1.07-1.1-.71-1.93-1.67-2.47-2.86-.54-1.19-.81-2.5-.81-3.93,0-1.57.29-3.05.86-4.43.58-1.38,1.37-2.6,2.39-3.66,1.02-1.06,2.2-1.89,3.55-2.48,1.34-.59,2.77-.89,4.28-.89,1.68,0,3.08.36,4.19,1.07,1.12.71,1.95,1.67,2.5,2.86.55,1.19.83,2.51.83,3.97,0,1.55-.29,3.01-.86,4.4-.58,1.38-1.38,2.6-2.41,3.66-1.03,1.06-2.22,1.89-3.56,2.48-1.34.59-2.79.89-4.32.89ZM742.34,711.71c.94,0,1.84-.2,2.72-.61.88-.4,1.66-.98,2.34-1.73s1.23-1.62,1.64-2.62c.41-1,.61-2.09.61-3.28,0-1.09-.18-2.06-.54-2.9-.36-.84-.89-1.51-1.58-2-.7-.49-1.56-.73-2.59-.73-.94,0-1.84.21-2.7.62-.86.42-1.64,1-2.34,1.75-.7.75-1.25,1.63-1.66,2.64s-.61,2.11-.61,3.3c0,1.07.18,2.02.54,2.87.36.84.89,1.5,1.6,1.98.71.48,1.57.71,2.57.71Z"/>
      <path class="cls-1" d="M758.54,695.41h2.88l-.86,4.04c.65-.88,1.42-1.64,2.32-2.29.9-.64,1.87-1.14,2.9-1.5s2.06-.54,3.1-.54,1.81.18,2.41.55c.6.37,1.03.88,1.3,1.54.26.66.4,1.42.4,2.3,0,.52-.04,1.07-.13,1.64s-.19,1.17-.3,1.79l-2.38,11.15h-3.17l2.23-10.42c.12-.52.2-1,.25-1.44.05-.44.07-.85.07-1.23,0-1.05-.22-1.81-.65-2.3-.43-.49-1.07-.73-1.91-.73-.79,0-1.63.21-2.52.64-.89.43-1.72,1-2.48,1.73-.77.72-1.39,1.56-1.87,2.51l-2.41,11.25h-3.17l4-18.68Z"/>
      <path class="cls-1" d="M778.95,695.41h2.88l-.86,4.04c.65-.88,1.42-1.64,2.32-2.29.9-.64,1.87-1.14,2.9-1.5,1.03-.36,2.06-.54,3.1-.54s1.81.18,2.41.55,1.03.88,1.3,1.54c.26.66.4,1.42.4,2.3,0,.52-.04,1.07-.13,1.64s-.19,1.17-.31,1.79l-2.38,11.15h-3.17l2.23-10.42c.12-.52.2-1,.25-1.44.05-.44.07-.85.07-1.23,0-1.05-.22-1.81-.65-2.3-.43-.49-1.07-.73-1.91-.73-.79,0-1.63.21-2.52.64-.89.43-1.72,1-2.48,1.73-.77.72-1.39,1.56-1.87,2.51l-2.41,11.25h-3.17l4-18.68Z"/>
      <path class="cls-1" d="M803.4,714.45c-1.56,0-2.89-.35-4-1.05-1.1-.7-1.94-1.65-2.52-2.84s-.86-2.52-.86-4,.28-2.94.85-4.31c.56-1.37,1.36-2.59,2.39-3.66s2.24-1.92,3.62-2.54c1.38-.62,2.89-.93,4.52-.93,1.22,0,2.31.19,3.26.57.95.38,1.69.94,2.21,1.68.53.74.79,1.67.79,2.79,0,1.88-.84,3.31-2.52,4.29s-4.26,1.47-7.74,1.47c-.65,0-1.39-.02-2.23-.05-.84-.04-1.81-.1-2.92-.2l.43-2.16c1.05.05,1.96.1,2.72.14.76.05,1.46.07,2.11.07,1.82,0,3.26-.15,4.32-.46,1.06-.31,1.82-.74,2.29-1.28.47-.55.7-1.16.7-1.85,0-.62-.15-1.12-.45-1.5-.3-.38-.72-.66-1.26-.85-.54-.19-1.18-.28-1.93-.28-1.2,0-2.29.25-3.26.75-.97.5-1.81,1.18-2.52,2.03-.71.86-1.25,1.82-1.62,2.91-.37,1.08-.56,2.2-.56,3.37,0,.97.17,1.88.5,2.73s.85,1.52,1.55,2.03c.7.51,1.57.77,2.63.77s2.18-.28,3.24-.85c1.06-.56,1.88-1.33,2.48-2.29l2.56.76c-.58.91-1.33,1.73-2.27,2.45-.94.72-1.96,1.28-3.08,1.69s-2.26.61-3.44.61Z"/>
      <path class="cls-1" d="M821.18,704.78l-4.64-9.38h3.31l3.31,6.87.14.57.43-.57,6.23-6.87h3.35l-8.64,9.38,4.68,9.31h-3.35l-3.31-6.84-.22-.54-.4.54-6.23,6.84h-3.35l8.68-9.31Z"/>
      <path class="cls-1" d="M836.26,695.41h3.17l-4,18.68h-3.17l4-18.68ZM837.85,687.92h3.17l-.83,3.96h-3.17l.83-3.96Z"/>
      <path class="cls-1" d="M848.47,714.45c-1.68,0-3.07-.36-4.18-1.07-1.1-.71-1.93-1.67-2.47-2.86s-.81-2.5-.81-3.93c0-1.57.29-3.05.86-4.43.58-1.38,1.37-2.6,2.39-3.66,1.02-1.06,2.2-1.89,3.55-2.48,1.34-.59,2.77-.89,4.28-.89,1.68,0,3.08.36,4.2,1.07,1.12.71,1.95,1.67,2.5,2.86.55,1.19.83,2.51.83,3.97,0,1.55-.29,3.01-.86,4.4-.58,1.38-1.38,2.6-2.41,3.66-1.03,1.06-2.22,1.89-3.56,2.48-1.34.59-2.78.89-4.32.89ZM849.01,711.71c.94,0,1.84-.2,2.72-.61.88-.4,1.66-.98,2.34-1.73s1.23-1.62,1.64-2.62c.41-1,.61-2.09.61-3.28,0-1.09-.18-2.06-.54-2.9-.36-.84-.89-1.51-1.58-2-.7-.49-1.56-.73-2.59-.73-.94,0-1.84.21-2.7.62-.86.42-1.64,1-2.34,1.75-.7.75-1.25,1.63-1.66,2.64s-.61,2.11-.61,3.3c0,1.07.18,2.02.54,2.87.36.84.89,1.5,1.6,1.98.71.48,1.57.71,2.57.71Z"/>
      <path class="cls-1" d="M865.21,695.41h2.88l-.86,4.04c.65-.88,1.42-1.64,2.32-2.29.9-.64,1.87-1.14,2.9-1.5,1.03-.36,2.06-.54,3.1-.54s1.81.18,2.41.55c.6.37,1.03.88,1.29,1.54.26.66.4,1.42.4,2.3,0,.52-.04,1.07-.12,1.64-.09.57-.19,1.17-.31,1.79l-2.38,11.15h-3.17l2.23-10.42c.12-.52.2-1,.25-1.44.05-.44.07-.85.07-1.23,0-1.05-.22-1.81-.65-2.3-.43-.49-1.07-.73-1.91-.73-.79,0-1.63.21-2.52.64-.89.43-1.72,1-2.48,1.73-.77.72-1.39,1.56-1.87,2.51l-2.41,11.25h-3.17l4-18.68Z"/>
      <path class="cls-1" d="M897.82,714.45c-1.39,0-2.59-.35-3.6-1.05-1.01-.7-1.78-1.64-2.3-2.82-.53-1.18-.79-2.47-.79-3.88,0-1.5.28-2.94.85-4.32.56-1.38,1.33-2.61,2.3-3.7.97-1.08,2.08-1.95,3.33-2.59,1.25-.64,2.56-.96,3.92-.96,1.44,0,2.64.39,3.6,1.18.96.79,1.63,1.74,2.02,2.86l.83-3.75h3.17l-3.17,14.67c-.02.09-.04.18-.05.25-.01.07-.02.14-.02.21,0,.43.26.65.79.67l-.58,2.74c-.26.02-.5.05-.7.09-.2.04-.39.05-.56.05-.67,0-1.18-.15-1.53-.45-.35-.3-.52-.66-.52-1.1,0-.14.01-.3.04-.48.02-.18.06-.4.11-.65.05-.25.11-.53.18-.82-.94,1.19-2.07,2.13-3.4,2.82-1.33.69-2.63,1.04-3.91,1.04ZM899.19,711.71c.53,0,1.1-.11,1.71-.32.61-.21,1.21-.51,1.8-.89.59-.38,1.12-.82,1.6-1.33.48-.51.84-1.05,1.08-1.62l1.12-5.36c-.1-.81-.37-1.54-.83-2.19-.46-.65-1.01-1.17-1.67-1.56s-1.36-.59-2.11-.59c-1.01,0-1.96.24-2.84.73-.89.49-1.67,1.13-2.36,1.94-.68.81-1.22,1.7-1.62,2.69-.4.99-.59,1.98-.59,2.98s.19,1.95.58,2.78c.38.83.93,1.5,1.64,2,.71.5,1.54.75,2.5.75Z"/>
      <path class="cls-1" d="M917.73,714.45c-2.93,0-4.39-1.58-4.39-4.73,0-.45.04-.94.11-1.45.07-.51.17-1.07.29-1.66l2.41-11.2h3.13l-2.27,10.58c-.22.95-.32,1.78-.32,2.47,0,2.17.94,3.25,2.81,3.25.82,0,1.63-.18,2.45-.55.82-.37,1.6-.9,2.36-1.59.76-.69,1.41-1.51,1.96-2.46l2.48-11.71h3.17l-3.17,14.8c-.02.1-.04.18-.05.25-.01.07-.02.14-.02.21,0,.43.26.66.79.68l-.58,2.74c-.26.02-.5.05-.7.09-.2.04-.39.05-.56.05-.65,0-1.14-.14-1.48-.43-.34-.29-.5-.67-.5-1.14,0-.14.01-.32.04-.52.02-.2.07-.47.13-.81.06-.33.14-.75.23-1.25-1.08,1.38-2.35,2.46-3.82,3.22s-2.96,1.15-4.5,1.15Z"/>
      <path class="cls-1" d="M945.99,695.41h2.88l-.86,4.04c.96-1.33,2.11-2.39,3.46-3.16,1.34-.77,2.71-1.16,4.1-1.16.94,0,1.72.18,2.36.54.64.36,1.12.87,1.46,1.54.34.67.52,1.49.54,2.46.74-1,1.52-1.83,2.34-2.5.82-.67,1.68-1.17,2.59-1.52.91-.34,1.84-.52,2.77-.52,1.03,0,1.85.19,2.45.57.6.38,1.04.91,1.31,1.59.28.68.41,1.47.41,2.38,0,.5-.04,1.02-.11,1.57s-.17,1.12-.29,1.71l-2.41,11.15h-3.17l2.23-10.42c.22-1,.32-1.87.32-2.6,0-1.05-.22-1.83-.67-2.34-.44-.51-1.09-.77-1.93-.77-.79,0-1.58.21-2.38.62-.79.42-1.53.99-2.21,1.72-.68.74-1.27,1.59-1.75,2.56l-2.38,11.22h-3.17l2.23-10.43c.12-.52.2-1,.25-1.43.05-.43.07-.83.07-1.21,0-1.04-.22-1.81-.65-2.31-.43-.5-1.07-.75-1.91-.75-1.18,0-2.35.45-3.51,1.33-1.16.89-2.11,2.07-2.83,3.54l-2.41,11.25h-3.17l4-18.68Z"/>
      <path class="cls-1" d="M981.85,714.45c-1.68,0-3.07-.36-4.18-1.07-1.1-.71-1.93-1.67-2.47-2.86s-.81-2.5-.81-3.93c0-1.57.29-3.05.86-4.43.58-1.38,1.37-2.6,2.39-3.66,1.02-1.06,2.2-1.89,3.55-2.48,1.34-.59,2.77-.89,4.28-.89,1.68,0,3.08.36,4.19,1.07s1.95,1.67,2.5,2.86c.55,1.19.83,2.51.83,3.97,0,1.55-.29,3.01-.86,4.4-.58,1.38-1.38,2.6-2.41,3.66-1.03,1.06-2.22,1.89-3.56,2.48-1.34.59-2.79.89-4.32.89ZM982.39,711.71c.94,0,1.84-.2,2.72-.61.88-.4,1.66-.98,2.34-1.73.68-.75,1.23-1.62,1.64-2.62.41-1,.61-2.09.61-3.28,0-1.09-.18-2.06-.54-2.9-.36-.84-.89-1.51-1.58-2-.7-.49-1.56-.73-2.59-.73-.94,0-1.84.21-2.7.62s-1.64,1-2.34,1.75-1.25,1.63-1.66,2.64-.61,2.11-.61,3.3c0,1.07.18,2.02.54,2.87.36.84.89,1.5,1.6,1.98.71.48,1.57.71,2.57.71Z"/>
      <path class="cls-1" d="M998.59,695.41h2.88l-.86,4.04c.65-.88,1.42-1.64,2.32-2.29.9-.64,1.87-1.14,2.9-1.5,1.03-.36,2.06-.54,3.1-.54s1.81.18,2.41.55c.6.37,1.03.88,1.3,1.54.26.66.4,1.42.4,2.3,0,.52-.04,1.07-.13,1.64-.08.57-.19,1.17-.31,1.79l-2.38,11.15h-3.17l2.23-10.42c.12-.52.2-1,.25-1.44.05-.44.07-.85.07-1.23,0-1.05-.22-1.81-.65-2.3-.43-.49-1.07-.73-1.91-.73-.79,0-1.63.21-2.52.64-.89.43-1.72,1-2.48,1.73-.77.72-1.39,1.56-1.87,2.51l-2.41,11.25h-3.17l4-18.68Z"/>
      <path class="cls-1" d="M1022.31,714.45c-1.39,0-2.59-.35-3.6-1.05-1.01-.7-1.78-1.64-2.3-2.82-.53-1.18-.79-2.47-.79-3.88,0-1.5.28-2.94.85-4.32.56-1.38,1.33-2.61,2.3-3.7.97-1.08,2.08-1.95,3.33-2.59,1.25-.64,2.56-.96,3.92-.96,1.44,0,2.64.39,3.6,1.18.96.79,1.63,1.74,2.02,2.86l2.41-11.35h3.17l-4.75,22.39c-.02.1-.04.18-.05.25-.01.07-.02.14-.02.22,0,.43.26.66.79.68l-.58,2.74c-.26.02-.5.05-.7.09-.2.04-.39.05-.56.05-.67,0-1.18-.15-1.53-.46-.35-.31-.52-.69-.52-1.14,0-.14.01-.3.04-.48.02-.18.06-.4.11-.66.05-.26.11-.56.18-.89-.94,1.19-2.07,2.13-3.4,2.82-1.33.69-2.63,1.04-3.91,1.04ZM1023.68,711.71c.53,0,1.1-.11,1.71-.32.61-.21,1.21-.51,1.8-.89.59-.38,1.12-.82,1.6-1.33.48-.51.84-1.05,1.08-1.62l1.12-5.36c-.1-.81-.37-1.54-.83-2.19-.46-.65-1.01-1.17-1.67-1.56s-1.36-.59-2.11-.59c-1.01,0-1.96.24-2.84.73-.89.49-1.67,1.13-2.36,1.94-.68.81-1.22,1.7-1.62,2.69-.4.99-.59,1.98-.59,2.98s.19,1.95.58,2.78c.38.83.93,1.5,1.64,2,.71.5,1.54.75,2.5.75Z"/>
      <path class="cls-1" d="M1044.84,714.45c-1.56,0-2.89-.35-4-1.05-1.1-.7-1.94-1.65-2.52-2.84-.58-1.19-.86-2.52-.86-4s.28-2.94.85-4.31c.56-1.37,1.36-2.59,2.39-3.66,1.03-1.07,2.24-1.92,3.62-2.54s2.89-.93,4.52-.93c1.22,0,2.31.19,3.26.57.95.38,1.69.94,2.21,1.68.53.74.79,1.67.79,2.79,0,1.88-.84,3.31-2.52,4.29-1.68.98-4.26,1.47-7.74,1.47-.65,0-1.39-.02-2.23-.05-.84-.04-1.81-.1-2.92-.2l.43-2.16c1.06.05,1.96.1,2.72.14.76.05,1.46.07,2.11.07,1.82,0,3.26-.15,4.32-.46,1.06-.31,1.82-.74,2.29-1.28.47-.55.7-1.16.7-1.85,0-.62-.15-1.12-.45-1.5s-.72-.66-1.26-.85c-.54-.19-1.18-.28-1.93-.28-1.2,0-2.29.25-3.26.75-.97.5-1.81,1.18-2.52,2.03-.71.86-1.25,1.82-1.62,2.91-.37,1.08-.56,2.2-.56,3.37,0,.97.17,1.88.5,2.73.34.84.85,1.52,1.55,2.03s1.57.77,2.63.77,2.18-.28,3.24-.85c1.06-.56,1.88-1.33,2.48-2.29l2.56.76c-.58.91-1.33,1.73-2.27,2.45-.94.72-1.96,1.28-3.08,1.69-1.12.41-2.26.61-3.44.61Z"/>
    </g>
    <line class="cls-2" x1="619.87" y1="670.32" x2="1055.1" y2="670.32"/>
  </g>
</svg>